<?xml version="1.0" encoding="utf-8"?>
<!-- Generator: Adobe Illustrator 21.0.0, SVG Export Plug-In . SVG Version: 6.00 Build 0)  -->
<svg version="1.1" id="Layer_1" xmlns="http://www.w3.org/2000/svg" xmlns:xlink="http://www.w3.org/1999/xlink" x="0px" y="0px"
	 viewBox="0 0 140 140" style="enable-background:new 0 0 140 140;" xml:space="preserve">
<style type="text/css">
	.st0{fill:#CFCFCF;}
	.st1{fill:none;stroke:#FFFFFF;stroke-width:1.1306;stroke-miterlimit:10;}
</style>
<path class="st0" d="M98.5,117.4h-57c-10.4,0-18.8-8.5-18.8-18.8v-57c0-10.4,8.5-18.8,18.8-18.8h57c10.4,0,18.8,8.5,18.8,18.8v57
	C117.4,108.9,108.9,117.4,98.5,117.4z"/>
<g>
	<polygon class="st1" points="77.7,92.9 62.4,92.9 62.4,34.6 49.4,34.6 49.4,105.4 77.7,105.4 	"/>
	<path class="st1" d="M84.2,50.4L84.2,50.4c-3.6,0-6.4,2.9-6.4,6.4v36.1h12.9V56.8C90.6,53.3,87.7,50.4,84.2,50.4z"/>
	<path class="st1" d="M88.9,45.1c-1.2,1.2-2.7,1.9-4.7,1.9s-3.5-0.6-4.7-1.9c-1.2-1.2-1.8-2.7-1.8-4.3c0-1.7,0.6-3.1,1.8-4.3
		c1.2-1.2,2.7-1.9,4.7-1.9s3.5,0.6,4.7,1.9c1.2,1.2,1.8,2.7,1.8,4.3C90.6,42.4,90,43.9,88.9,45.1z"/>
</g>
</svg>
