<?xml version="1.0" encoding="utf-8"?>
<!-- Generator: Adobe Illustrator 21.0.0, SVG Export Plug-In . SVG Version: 6.00 Build 0)  -->
<svg version="1.1" id="Layer_1" xmlns="http://www.w3.org/2000/svg" xmlns:xlink="http://www.w3.org/1999/xlink" x="0px" y="0px"
	 viewBox="0 0 140 140" style="enable-background:new 0 0 140 140;" xml:space="preserve">
<style type="text/css">
	.st0{fill:#CFCFCF;}
</style>
<g>
	<g>
		<g>
			<path class="st0" d="M102.5,124h-65c-11.8,0-21.5-9.6-21.5-21.5v-65C16,25.6,25.6,16,37.5,16h65c11.8,0,21.5,9.6,21.5,21.5v65
				C124,114.4,114.4,124,102.5,124z M37.5,17.9c-10.8,0-19.6,8.8-19.6,19.6v65c0,10.8,8.8,19.6,19.6,19.6h65
				c10.8,0,19.6-8.8,19.6-19.6v-65c0-10.8-8.8-19.6-19.6-19.6H37.5z"/>
		</g>
	</g>
	<g>
		<g>
			<polygon class="st0" points="78.8,96.1 61.3,96.1 61.3,29.6 46.5,29.6 46.5,110.4 78.8,110.4 			"/>
			<path class="st0" d="M86.2,47.6L86.2,47.6c-4.1,0-7.3,3.3-7.3,7.4v41.2h14.7V55C93.5,50.9,90.2,47.6,86.2,47.6z"/>
			<path class="st0" d="M91.5,41.6c-1.3,1.4-3.1,2.1-5.3,2.1c-2.2,0-4-0.7-5.3-2.1c-1.3-1.4-2-3.1-2-5c0-1.9,0.7-3.5,2-5
				c1.3-1.4,3.1-2.1,5.3-2.1c2.2,0,4,0.7,5.3,2.1c1.3,1.4,2,3.1,2,5C93.5,38.6,92.8,40.2,91.5,41.6z"/>
		</g>
	</g>
</g>
</svg>
