<?xml version="1.0" encoding="utf-8"?>
<!-- Generator: Adobe Illustrator 21.0.0, SVG Export Plug-In . SVG Version: 6.00 Build 0)  -->
<svg version="1.1" id="Layer_1" xmlns="http://www.w3.org/2000/svg" xmlns:xlink="http://www.w3.org/1999/xlink" x="0px" y="0px"
	 viewBox="0 0 140 140" style="enable-background:new 0 0 140 140;" xml:space="preserve">
<style type="text/css">
	.st0{fill:#32C5F4;}
</style>
<g>
	<g>
		<g>
			<path class="st0" d="M33.3,61.4h2.1v13.5h-2.1V61.4z"/>
			<path class="st0" d="M37.1,63.5c-0.3-0.3-0.4-0.6-0.4-1c0-0.4,0.1-0.7,0.4-1c0.3-0.3,0.6-0.4,1-0.4c0.4,0,0.7,0.1,1,0.4
				c0.3,0.3,0.4,0.6,0.4,1c0,0.4-0.1,0.7-0.4,1c-0.3,0.3-0.6,0.4-1,0.4C37.7,63.9,37.3,63.7,37.1,63.5z M37,65.3h2.1v9.6H37V65.3z"
				/>
			<path class="st0" d="M47.8,74.9l0.1-1.3h-0.1c-0.3,0.4-0.7,0.8-1.2,1.1c-0.5,0.3-1.1,0.5-1.8,0.5c-0.9,0-1.6-0.2-2.4-0.7
				c-0.7-0.4-1.3-1-1.7-1.8c-0.4-0.8-0.6-1.6-0.6-2.6s0.2-1.9,0.6-2.6c0.4-0.8,1-1.4,1.7-1.8c0.7-0.4,1.5-0.7,2.4-0.7
				c0.7,0,1.3,0.2,1.8,0.5c0.5,0.3,0.9,0.7,1.2,1.1h0.1v-1.3h2v13.7h-2.1V74.9z M46.4,72.9c0.4-0.3,0.8-0.6,1-1.1
				c0.3-0.5,0.4-1,0.4-1.7c0-0.6-0.1-1.2-0.4-1.7c-0.3-0.5-0.6-0.9-1-1.1C46,67,45.5,66.9,45,66.9c-0.5,0-1,0.1-1.4,0.4
				c-0.4,0.3-0.8,0.6-1.1,1.1c-0.3,0.5-0.4,1-0.4,1.7c0,0.6,0.1,1.2,0.4,1.7c0.3,0.5,0.6,0.9,1.1,1.1c0.4,0.3,0.9,0.4,1.4,0.4
				C45.5,73.3,46,73.1,46.4,72.9z"/>
			<path class="st0" d="M52.1,74.1c-0.6-0.7-0.9-1.7-0.9-2.9v-5.9h2.1v5.7c0,0.8,0.2,1.4,0.6,1.7c0.4,0.4,0.9,0.6,1.5,0.6
				c0.5,0,0.9-0.1,1.3-0.4c0.4-0.3,0.7-0.6,0.9-1c0.2-0.4,0.3-0.9,0.3-1.4v-5.2h2.1v9.6h-2v-1.2h-0.1c-0.3,0.5-0.7,0.8-1.2,1.1
				c-0.6,0.3-1.1,0.4-1.7,0.4C53.6,75.2,52.7,74.8,52.1,74.1z"/>
			<path class="st0" d="M61.4,63.5c-0.3-0.3-0.4-0.6-0.4-1c0-0.4,0.1-0.7,0.4-1c0.3-0.3,0.6-0.4,1-0.4c0.4,0,0.7,0.1,1,0.4
				c0.3,0.3,0.4,0.6,0.4,1c0,0.4-0.1,0.7-0.4,1c-0.3,0.3-0.6,0.4-1,0.4C62,63.9,61.7,63.7,61.4,63.5z M61.4,65.3h2.1v9.6h-2.1V65.3z
				"/>
			<path class="st0" d="M66.7,74.5c-0.7-0.4-1.3-1-1.7-1.8c-0.4-0.8-0.6-1.6-0.6-2.6s0.2-1.9,0.6-2.6s1-1.4,1.7-1.8
				c0.7-0.4,1.5-0.7,2.4-0.7c0.7,0,1.3,0.2,1.8,0.5c0.5,0.3,0.9,0.7,1.2,1.1h0.1l-0.1-1.4v-3.8h2.1v13.5h-2v-1.2h-0.1
				c-0.3,0.4-0.7,0.8-1.2,1.1c-0.5,0.3-1.1,0.5-1.8,0.5C68.2,75.2,67.4,74.9,66.7,74.5z M70.8,72.9c0.4-0.3,0.8-0.6,1-1.1
				c0.3-0.5,0.4-1,0.4-1.7c0-0.6-0.1-1.2-0.4-1.7c-0.3-0.5-0.6-0.9-1-1.1c-0.4-0.3-0.9-0.4-1.4-0.4c-0.5,0-1,0.1-1.4,0.4
				c-0.4,0.3-0.8,0.6-1.1,1.1c-0.3,0.5-0.4,1-0.4,1.7c0,0.6,0.1,1.2,0.4,1.7c0.3,0.5,0.6,0.9,1.1,1.1c0.4,0.3,0.9,0.4,1.4,0.4
				C69.9,73.3,70.4,73.1,70.8,72.9z"/>
			<path class="st0" d="M79.1,65.3h2v1.3h0.1c0.3-0.5,0.7-0.8,1.2-1.1c0.5-0.3,1.1-0.4,1.7-0.4c1.2,0,2.1,0.3,2.7,1
				c0.6,0.7,0.9,1.6,0.9,2.8v6.1h-2.1v-5.8c0-0.8-0.2-1.3-0.6-1.7c-0.4-0.4-0.9-0.5-1.5-0.5c-0.5,0-0.9,0.1-1.2,0.4
				c-0.4,0.3-0.6,0.6-0.8,1c-0.2,0.4-0.3,0.9-0.3,1.4v5.2h-2.1V65.3z"/>
			<path class="st0" d="M91.4,74.8c-0.4-0.1-0.7-0.3-0.9-0.5c-0.5-0.5-0.8-1.3-0.8-2.2v-5H88v-1.8h1.7v-2.7h2.1v2.7h2.3v1.8h-2.3
				v4.5c0,0.5,0.1,0.9,0.3,1.1c0.2,0.3,0.5,0.4,1,0.4c0.2,0,0.4,0,0.6-0.1c0.2-0.1,0.3-0.1,0.5-0.3v2c-0.4,0.2-0.9,0.3-1.5,0.3
				C92.2,75,91.8,74.9,91.4,74.8z"/>
			<path class="st0" d="M96.6,74.5c-0.7-0.4-1.3-1-1.7-1.8c-0.4-0.8-0.6-1.6-0.6-2.6c0-0.9,0.2-1.8,0.6-2.5c0.4-0.8,1-1.4,1.7-1.9
				c0.7-0.5,1.6-0.7,2.5-0.7c1,0,1.8,0.2,2.5,0.6c0.7,0.4,1.2,1,1.6,1.7c0.4,0.7,0.6,1.6,0.6,2.5c0,0.2,0,0.4-0.1,0.7h-7.4
				c0.1,0.9,0.4,1.6,0.9,2.1c0.6,0.5,1.2,0.7,1.9,0.7c0.6,0,1.1-0.1,1.5-0.4c0.4-0.3,0.8-0.6,1-1.1l1.7,0.8c-0.5,0.8-1,1.4-1.8,1.9
				c-0.7,0.5-1.6,0.7-2.6,0.7C98.2,75.2,97.3,74.9,96.6,74.5z M101.6,68.9c0-0.3-0.1-0.7-0.3-1c-0.2-0.3-0.5-0.6-0.9-0.8
				c-0.4-0.2-0.9-0.3-1.4-0.3c-0.7,0-1.2,0.2-1.7,0.6c-0.5,0.4-0.8,0.9-0.9,1.6H101.6z"/>
			<path class="st0" d="M104.6,61.4h2.1v13.5h-2.1V61.4z"/>
		</g>
	</g>
	<g>
		<path class="st0" d="M76.7,64.2L76.7,64.2c-0.7,0-1.2,0.5-1.2,1.2v6.7h2.4v-6.7C77.9,64.8,77.3,64.2,76.7,64.2z"/>
		<path class="st0" d="M77.5,63.2c-0.2,0.2-0.5,0.3-0.9,0.3s-0.7-0.1-0.9-0.3c-0.2-0.2-0.3-0.5-0.3-0.8s0.1-0.6,0.3-0.8
			c0.2-0.2,0.5-0.3,0.9-0.3s0.7,0.1,0.9,0.3c0.2,0.2,0.3,0.5,0.3,0.8S77.8,63,77.5,63.2z"/>
	</g>
</g>
</svg>
