<?xml version="1.0" encoding="utf-8"?>
<!-- Generator: Adobe Illustrator 21.0.0, SVG Export Plug-In . SVG Version: 6.00 Build 0)  -->
<svg version="1.1" id="Layer_1" xmlns="http://www.w3.org/2000/svg" xmlns:xlink="http://www.w3.org/1999/xlink" x="0px" y="0px"
	 viewBox="0 0 140 140" style="enable-background:new 0 0 140 140;" xml:space="preserve">
<style type="text/css">
	.st0{fill:#32C5F4;}
</style>
<g>
	<g>
		<g>
			<g>
				<path class="st0" d="M50.6,61.4h2.1v13.5h-2.1V61.4z"/>
				<path class="st0" d="M54.4,63.5c-0.3-0.3-0.4-0.6-0.4-1c0-0.4,0.1-0.7,0.4-1c0.3-0.3,0.6-0.4,1-0.4c0.4,0,0.7,0.1,1,0.4
					c0.3,0.3,0.4,0.6,0.4,1c0,0.4-0.1,0.7-0.4,1c-0.3,0.3-0.6,0.4-1,0.4C55,63.9,54.6,63.7,54.4,63.5z M54.3,65.3h2.1v9.6h-2.1V65.3
					z"/>
				<path class="st0" d="M65.1,74.9l0.1-1.3h-0.1c-0.3,0.4-0.7,0.8-1.2,1.1c-0.5,0.3-1.1,0.5-1.8,0.5c-0.9,0-1.6-0.2-2.4-0.7
					c-0.7-0.4-1.3-1-1.7-1.8c-0.4-0.8-0.6-1.6-0.6-2.6s0.2-1.9,0.6-2.6c0.4-0.8,1-1.4,1.7-1.8c0.7-0.4,1.5-0.7,2.4-0.7
					c0.7,0,1.3,0.2,1.8,0.5c0.5,0.3,0.9,0.7,1.2,1.1h0.1v-1.3h2v13.7h-2.1V74.9z M63.7,72.9c0.4-0.3,0.8-0.6,1-1.1
					c0.3-0.5,0.4-1,0.4-1.7c0-0.6-0.1-1.2-0.4-1.7c-0.3-0.5-0.6-0.9-1-1.1c-0.4-0.3-0.9-0.4-1.4-0.4c-0.5,0-1,0.1-1.4,0.4
					c-0.4,0.3-0.8,0.6-1.1,1.1c-0.3,0.5-0.4,1-0.4,1.7c0,0.6,0.1,1.2,0.4,1.7c0.3,0.5,0.6,0.9,1.1,1.1c0.4,0.3,0.9,0.4,1.4,0.4
					C62.8,73.3,63.3,73.1,63.7,72.9z"/>
				<path class="st0" d="M69.4,74.1c-0.6-0.7-0.9-1.7-0.9-2.9v-5.9h2.1v5.7c0,0.8,0.2,1.4,0.6,1.7c0.4,0.4,0.9,0.6,1.5,0.6
					c0.5,0,0.9-0.1,1.3-0.4c0.4-0.3,0.7-0.6,0.9-1c0.2-0.4,0.3-0.9,0.3-1.4v-5.2h2.1v9.6h-2v-1.2H75c-0.3,0.5-0.7,0.8-1.2,1.1
					c-0.6,0.3-1.1,0.4-1.7,0.4C70.9,75.2,70,74.8,69.4,74.1z"/>
				<path class="st0" d="M78.7,63.5c-0.3-0.3-0.4-0.6-0.4-1c0-0.4,0.1-0.7,0.4-1c0.3-0.3,0.6-0.4,1-0.4s0.7,0.1,1,0.4
					c0.3,0.3,0.4,0.6,0.4,1c0,0.4-0.1,0.7-0.4,1c-0.3,0.3-0.6,0.4-1,0.4S79,63.7,78.7,63.5z M78.7,65.3h2.1v9.6h-2.1V65.3z"/>
				<path class="st0" d="M84,74.5c-0.7-0.4-1.3-1-1.7-1.8c-0.4-0.8-0.6-1.6-0.6-2.6s0.2-1.9,0.6-2.6c0.4-0.8,1-1.4,1.7-1.8
					c0.7-0.4,1.5-0.7,2.4-0.7c0.7,0,1.3,0.2,1.8,0.5c0.5,0.3,0.9,0.7,1.2,1.1h0.1l-0.1-1.4v-3.8h2.1v13.5h-2v-1.2h-0.1
					c-0.3,0.4-0.7,0.8-1.2,1.1c-0.5,0.3-1.1,0.5-1.8,0.5C85.5,75.2,84.7,74.9,84,74.5z M88.1,72.9c0.4-0.3,0.8-0.6,1-1.1
					c0.3-0.5,0.4-1,0.4-1.7c0-0.6-0.1-1.2-0.4-1.7c-0.3-0.5-0.6-0.9-1-1.1c-0.4-0.3-0.9-0.4-1.4-0.4c-0.5,0-1,0.1-1.4,0.4
					c-0.4,0.3-0.8,0.6-1.1,1.1c-0.3,0.5-0.4,1-0.4,1.7c0,0.6,0.1,1.2,0.4,1.7c0.3,0.5,0.6,0.9,1.1,1.1c0.4,0.3,0.9,0.4,1.4,0.4
					C87.2,73.3,87.7,73.1,88.1,72.9z"/>
				<path class="st0" d="M96.4,65.3h2v1.3h0.1c0.3-0.5,0.7-0.8,1.2-1.1c0.5-0.3,1.1-0.4,1.7-0.4c1.2,0,2.1,0.3,2.7,1
					c0.6,0.7,0.9,1.6,0.9,2.8v6.1H103v-5.8c0-0.8-0.2-1.3-0.6-1.7c-0.4-0.4-0.9-0.5-1.5-0.5c-0.5,0-0.9,0.1-1.2,0.4
					c-0.4,0.3-0.6,0.6-0.8,1c-0.2,0.4-0.3,0.9-0.3,1.4v5.2h-2.1V65.3z"/>
				<path class="st0" d="M108.7,74.8c-0.4-0.1-0.7-0.3-0.9-0.5c-0.5-0.5-0.8-1.3-0.8-2.2v-5h-1.7v-1.8h1.7v-2.7h2.1v2.7h2.3v1.8H109
					v4.5c0,0.5,0.1,0.9,0.3,1.1c0.2,0.3,0.5,0.4,1,0.4c0.2,0,0.4,0,0.6-0.1c0.2-0.1,0.3-0.1,0.5-0.3v2c-0.4,0.2-0.9,0.3-1.5,0.3
					C109.5,75,109.1,74.9,108.7,74.8z"/>
				<path class="st0" d="M113.9,74.5c-0.7-0.4-1.3-1-1.7-1.8c-0.4-0.8-0.6-1.6-0.6-2.6c0-0.9,0.2-1.8,0.6-2.5c0.4-0.8,1-1.4,1.7-1.9
					c0.7-0.5,1.6-0.7,2.5-0.7c1,0,1.8,0.2,2.5,0.6c0.7,0.4,1.2,1,1.6,1.7c0.4,0.7,0.6,1.6,0.6,2.5c0,0.2,0,0.4-0.1,0.7h-7.4
					c0.1,0.9,0.4,1.6,0.9,2.1c0.6,0.5,1.2,0.7,1.9,0.7c0.6,0,1.1-0.1,1.5-0.4c0.4-0.3,0.8-0.6,1-1.1l1.7,0.8c-0.5,0.8-1,1.4-1.8,1.9
					c-0.7,0.5-1.6,0.7-2.6,0.7C115.5,75.2,114.6,74.9,113.9,74.5z M118.9,68.9c0-0.3-0.1-0.7-0.3-1c-0.2-0.3-0.5-0.6-0.9-0.8
					c-0.4-0.2-0.9-0.3-1.4-0.3c-0.7,0-1.2,0.2-1.7,0.6c-0.5,0.4-0.8,0.9-0.9,1.6H118.9z"/>
				<path class="st0" d="M121.9,61.4h2.1v13.5h-2.1V61.4z"/>
			</g>
		</g>
		<g>
			<path class="st0" d="M94,64.2L94,64.2c-0.7,0-1.2,0.5-1.2,1.2v6.7h2.4v-6.7C95.2,64.8,94.6,64.2,94,64.2z"/>
			<path class="st0" d="M94.8,63.2c-0.2,0.2-0.5,0.3-0.9,0.3c-0.4,0-0.7-0.1-0.9-0.3c-0.2-0.2-0.3-0.5-0.3-0.8s0.1-0.6,0.3-0.8
				c0.2-0.2,0.5-0.3,0.9-0.3c0.4,0,0.7,0.1,0.9,0.3c0.2,0.2,0.3,0.5,0.3,0.8S95.1,63,94.8,63.2z"/>
		</g>
	</g>
	<g>
		<path class="st0" d="M38.4,84H21.6c-3.1,0-5.6-2.5-5.6-5.6V61.6c0-3.1,2.5-5.6,5.6-5.6h16.8c3.1,0,5.6,2.5,5.6,5.6v16.8
			C44,81.5,41.5,84,38.4,84z M21.6,56.5c-2.8,0-5.1,2.3-5.1,5.1v16.8c0,2.8,2.3,5.1,5.1,5.1h16.8c2.8,0,5.1-2.3,5.1-5.1V61.6
			c0-2.8-2.3-5.1-5.1-5.1H21.6z"/>
	</g>
	<g>
		<polygon class="st0" points="32.3,76.8 27.7,76.8 27.7,59.5 23.9,59.5 23.9,80.5 32.3,80.5 		"/>
		<path class="st0" d="M34.2,64.2L34.2,64.2c-1,0-1.9,0.9-1.9,1.9v10.7h3.8V66.1C36.1,65.1,35.2,64.2,34.2,64.2z"/>
		<path class="st0" d="M35.6,62.7c-0.3,0.4-0.8,0.6-1.4,0.6c-0.6,0-1-0.2-1.4-0.6c-0.3-0.4-0.5-0.8-0.5-1.3s0.2-0.9,0.5-1.3
			c0.3-0.4,0.8-0.6,1.4-0.6c0.6,0,1,0.2,1.4,0.6c0.3,0.4,0.5,0.8,0.5,1.3S35.9,62.3,35.6,62.7z"/>
	</g>
</g>
</svg>
