<?xml version="1.0" encoding="utf-8"?>
<!-- Generator: Adobe Illustrator 21.0.0, SVG Export Plug-In . SVG Version: 6.00 Build 0)  -->
<svg version="1.1" id="Layer_1" xmlns="http://www.w3.org/2000/svg" xmlns:xlink="http://www.w3.org/1999/xlink" x="0px" y="0px"
	 viewBox="0 0 140 140" style="enable-background:new 0 0 140 140;" xml:space="preserve">
<style type="text/css">
	.st0{fill:#32C5F4;}
	.st1{fill:#FFFFFF;}
</style>
<path class="st0" d="M102.9,125.4H37c-12,0-21.8-9.8-21.8-21.8V37.7c0-12,9.8-21.8,21.8-21.8h65.9c12,0,21.8,9.8,21.8,21.8v65.9
	C124.7,115.6,114.9,125.4,102.9,125.4z"/>
<g>
	<polygon class="st1" points="78.9,97.1 61.1,97.1 61.1,29.7 46.1,29.7 46.1,111.6 78.9,111.6 	"/>
	<path class="st1" d="M86.3,48L86.3,48c-4.1,0-7.4,3.3-7.4,7.5v41.7h14.9V55.4C93.8,51.3,90.4,48,86.3,48z"/>
	<path class="st1" d="M91.7,41.9c-1.3,1.4-3.2,2.2-5.4,2.2c-2.3,0-4.1-0.7-5.4-2.2c-1.4-1.4-2-3.1-2-5s0.7-3.6,2-5
		c1.3-1.4,3.2-2.2,5.4-2.2c2.3,0,4.1,0.7,5.4,2.2c1.4,1.4,2,3.1,2,5S93.1,40.5,91.7,41.9z"/>
</g>
</svg>
